# AST/ASF file generated using VICON BodyLanguage
# -----------------------------------------------
:version 1.10
:name VICON
:units
  mass 1.0
  length 0.45
  angle deg
:documentation
   .ast/.asf automatically generated from VICON data using
   VICON BodyBuilder and BodyLanguage model FoxedUp or BRILLIANT.MOD
:root
   order TX TY TZ RX RY RZ
   axis XYZ
   position 0 0 0  
   orientation 0 0 0 
:bonedata
  begin
     id 1 
     name lhipjoint
     direction 0.611804 -0.747784 0.257906 
     length 2.29243 
     axis 0 0 0  XYZ
  end
  begin
     id 2 
     name lfemur
     direction 0.34202 -0.939693 0  
     length 7.31159  
     axis 0 0 20  XYZ
    dof rx ry rz
    limits (-160.0 20.0)
           (-70.0 70.0)
           (-60.0 70.0)
  end
  begin
     id 3 
     name ltibia
     direction 0.34202 -0.939693 0   
     length 7.33391   
     axis 0 0 20   XYZ
    dof rx
    limits (-10.0 170.0)
  end
  begin
     id 4 
     name lfoot
     direction 0.122263 -0.335914 0.933924   
     length 1.76083   
     axis -90 7.62852e-016 20   XYZ
    dof rx rz
    limits (-45.0 90.0)
           (-70.0 20.0)
  end
  begin
     id 5 
     name ltoes
     direction 1.53533e-011 -4.2177e-011 1   
     length 0.879206   
     axis -90 7.62852e-016 20   XYZ
    dof rx
    limits (-90.0 20.0)
  end
  begin
     id 6 
     name rhipjoint
     direction -0.646469 -0.721248 0.248754   
     length 2.37677  
     axis 0 0 0  XYZ 
  end
  begin
     id 7 
     name rfemur
     direction -0.34202 -0.939693 0   
     length 7.18623   
     axis 0 0 -20   XYZ
    dof rx ry rz
    limits (-160.0 20.0)
           (-70.0 70.0)
           (-70.0 60.0)
  end
  begin
     id 8 
     name rtibia
     direction -0.34202 -0.939693 0   
     length 7.36567   
     axis 0 0 -20   XYZ
    dof rx
    limits (-10.0 170.0)
 end
 begin
     id 9 
     name rfoot
     direction -0.126681 -0.348054 0.928876   
     length 1.71902  
     axis -90 -7.62852e-016 -20   XYZ
    dof rx rz
    limits (-45.0 90.0)
           (-20.0 70.0)
  end
  begin
     id 10 
     name rtoes
     direction -1.53551e-011 -4.21898e-011 1   
     length 0.857792   
     axis -90 -7.62852e-016 -20   XYZ
    dof rx
    limits (-90.0 20.0)
  end
  begin
     id 11 
     name lowerback
     direction 0.0106509 0.999778 0.0181844   
     length 2.07668   
     axis 0 0 0   XYZ
    dof rx ry rz
    limits (-20.0 45.0)
           (-30.0 30.0)
           (-30.0 30.0)
  end
  begin
     id 12 
     name upperback
     direction -0.00456018 0.999989 -0.000590935   
     length 2.08011   
     axis 0 0 0   XYZ
    dof rx ry rz
    limits (-20.0 45.0)
           (-30.0 30.0)
           (-30.0 30.0)
  end
  begin
     id 13 
     name thorax
     direction -0.00910382 0.999916 -0.00923765   
     length 2.07397   
     axis 0 0 0   XYZ
    dof rx ry rz
    limits (-20.0 45.0)
           (-30.0 30.0)
           (-30.0 30.0)
  end
  begin
     id 14 
     name lowerneck
     direction 0.00171967 0.99778 0.0665733   
     length 1.67556   
     axis 0 0 0   XYZ
    dof rx ry rz
    limits (-20.0 45.0)
           (-30.0 30.0)
           (-30.0 30.0)
  end
  begin
     id 15 
     name upperneck
     direction -0.0143166 0.991302 -0.130828   
     length 1.68462   
     axis 0 0 0   XYZ
    dof rx ry rz
    limits (-20.0 45.0)
           (-30.0 30.0)
           (-30.0 30.0)
  end
  begin
     id 16
     name head
     direction -0.00606378 0.998665 -0.0512995  
     length 1.69269  
     axis 0 0 0   XYZ
    dof rx ry rz
    limits (-20.0 45.0)
           (-30.0 30.0)
           (-30.0 30.0)
  end
  begin
     id 17 
     name lclavicle
     direction 0.9638 0.179341 0.197297  
     length 4.12888  
     axis 0 0 0   XYZ
    dof ry rz
    limits (-20.0 10.0)
           (0.0 20.0)
  end
  begin
     id 18 
     name lhumerus
     direction 1 -4.48972e-011 -2.47351e-027   
     length 5.01834   
     axis -180 -30 -90   XYZ
    dof rx ry rz
    limits (-60.0 90.0)
           (-90.0 90.0)
           (-90.0 90.0)
  end
  begin
     id 19
     name lradius
     direction 1 -4.48965e-011 1.51591e-026   
     length 3.4869   
     axis -180 -30 -90   XYZ
    dof rx
    limits (-10.0 170.0)
  end
  begin
     id 20
     name lwrist
     direction 1 -4.48957e-011 2.70032e-026   
     length 1.74345   
     axis -1.81515e-014 90 90   XYZ
    dof ry
    limits (-180.0 0.0)
 end
  begin
     id 21 
     name lhand
     direction 1 -4.48951e-011 5.40064e-026   
     length 0.76799   
     axis -3.44607e-014 90 90   XYZ
    dof rx rz
    limits (-90.0 90.0)
           (-45.0 45.0)
  end
  begin
     id 22 
     name lfingers
     direction 1 -4.48971e-011 1.08013e-025   
     length 0.619174   
     axis -6.89214e-014 90 90   XYZ
    dof rx
    limits (0.0 90.0)
  end
  begin
     id 23
     name lthumb
     direction 0.707107 -6.34931e-011 0.707107   
     length 0.889013   
     axis -90 45 2.85299e-015   XYZ
    dof rx rz
    limits (-45.0 45.0)
           (-45.0 45.0)
  end
  begin
     id 24 
     name rclavicle
     direction -0.961409 0.252588 0.109054   
     length 4.04305  
     axis 0 0 0   XYZ 
    dof ry rz
    limits (-10.0 20.0)
           (-20.0 0.0)
  end
  begin
     id 25 
     name rhumerus
     direction -1 -4.4897e-011 1.33872e-017  
     length 4.70164   
     axis -180 30 90   XYZ
    dof rx ry rz
    limits (-90.0 60.0)
           (-90.0 90.0)
           (-90.0 90.0)
  end
  begin
     id 26 
     name rradius
     direction -1 -4.48954e-011 1.83844e-026   
     length 3.49911   
     axis -180 30 90   XYZ
    dof rx
    limits (-10.0 170.0)
  end
  begin
     id 27 
     name rwrist
     direction -1 -4.49008e-011 2.70032e-026   
     length 1.74955   
     axis -1.81515e-014 -90 -90   XYZ
    dof ry
    limits (-180.0 0.0)
  end
  begin
     id 28
     name rhand
     direction -1 -4.48916e-011 5.40064e-026   
     length 0.739335   
     axis -3.44607e-014 -90 -90   XYZ
    dof rx rz
    limits (-90.0 90.0)
           (-45.0 45.0)
  end
  begin
     id 29
     name rfingers
     direction -1 -4.48987e-011 1.08013e-025   
     length 0.596071   
     axis -6.89214e-014 -90 -90   XYZ
    dof rx
    limits (0.0 90.0)
  end
  begin
     id 30
     name rthumb
     direction -0.707107 -6.34935e-011 0.707107   
     length 0.855843   
     axis -90 -45 -2.85299e-015   XYZ
    dof rx rz
    limits (-45.0 45.0)
           (-45.0 45.0)
  end
:hierarchy
  begin
    root lhipjoint rhipjoint lowerback
    lhipjoint lfemur
    lfemur ltibia
    ltibia lfoot
    lfoot ltoes
    rhipjoint rfemur
    rfemur rtibia
    rtibia rfoot
    rfoot rtoes
    lowerback upperback
    upperback thorax
    thorax lowerneck lclavicle rclavicle
    lowerneck upperneck
    upperneck head
    lclavicle lhumerus
    lhumerus lradius
    lradius lwrist
    lwrist lhand lthumb
    lhand lfingers
    rclavicle rhumerus
    rhumerus rradius
    rradius rwrist
    rwrist rhand rthumb
    rhand rfingers
  end

#!OML:ASF I:\salsa\salsa 7_09\Patient 1\Session 1\dancermale.ASF
:FULLY-SPECIFIED
:DEGREES
985
root 7.65651 17.3772 -5.20766 13.3688 -11.2926 719.884
lowerback -1.34723 -4.8116 -2.28318
upperback -1.8773 -6.40933 0.465943
thorax -0.872524 -3.18081 1.69418
lowerneck -9.0384 -7.6202 -4.90583
upperneck 17.0237 -10.2968 3.2902
head 7.12483 -5.00484 0.922556
rclavicle -3.69739e-014 -6.36111e-015
rhumerus -45.1652 6.07639 -89.5447
rradius 79.1175
rwrist -0.254619
rhand -57.8639 -9.07097
rfingers 7.12502
rthumb -30.116 -36.6372
lclavicle -3.69739e-014 -6.36111e-015
lhumerus -14.0134 -15.536 103.951
lradius 64.7779
lwrist 72.6484
lhand -16.3694 57.7761
lfingers 7.12502
lthumb 9.84374 -632.474
rfemur -34.2369 -6.90805 23.3947
rtibia 35.8414
rfoot -13.1179 -4.61793
rtoes -5.32014
lfemur -11.7511 4.20409 -21.6142
ltibia 24.9345
lfoot -21.9372 9.87252
ltoes -18.3432
986
root 7.63781 17.3548 -5.35825 13.3481 -10.6387 719.904
lowerback -1.18322 -4.80244 -2.31504
upperback -1.85919 -6.40111 0.41157
thorax -0.948538 -3.17556 1.67091
lowerneck -8.9826 -7.53614 -4.68604
upperneck 17.0542 -10.182 3.09292
head 7.09728 -4.9532 0.839471
rclavicle -5.80451e-014 -1.98785e-015
rhumerus -45.0456 6.07062 -91.1201
rradius 76.515
rwrist 1.88882
rhand -58.4992 -6.87272
rfingers 7.12502
rthumb -30.7219 -34.3268
lclavicle -5.80451e-014 -1.98785e-015
lhumerus -11.9201 -14.0032 104.031
lradius 61.473
lwrist 71.4519
lhand -15.9035 57.2497
lfingers 7.12502
lthumb 10.2933 -633.022
rfemur -34.4738 -6.70103 23.4748
rtibia 35.6512
rfoot -12.7676 -4.38313
rtoes -7.57749
lfemur -12.0577 3.49013 -21.522
ltibia 24.4582
lfoot -22.3676 10.6314
ltoes -18.4195
987
root 7.60566 17.3291 -5.50447 13.212 -10.1136 719.831
lowerback -0.953039 -4.80967 -2.38821
upperback -1.79792 -6.41551 0.399039
thorax -1.00692 -3.1814 1.71592
lowerneck -9.05605 -7.35357 -4.98924
upperneck 17.3094 -9.90737 3.18599
head 7.20274 -4.82933 0.935958
rclavicle -9.74045e-015 3.57812e-015
rhumerus -44.6495 6.3256 -92.4338
rradius 73.5152
rwrist 3.81761
rhand -58.8762 -3.62748
rfingers 7.12502
rthumb -31.0814 -31.0134
lclavicle -9.74045e-015 3.57812e-015
lhumerus -9.77936 -12.0988 104.022
lradius 58.2622
lwrist 70.1294
lhand -14.8952 57.0301
lfingers 7.12502
lthumb 11.2658 -633.292
rfemur -34.279 -4.66604 23.446
rtibia 35.262
rfoot -12.5796 -5.61073
rtoes -11.2894
lfemur -12.1562 2.74237 -21.2305
ltibia 23.984
lfoot -22.6762 11.0502
ltoes -18.1848
988
root 7.55495 17.3061 -5.64657 12.8006 -9.82629 719.79
lowerback -0.473854 -4.71759 -2.69603
upperback -1.67591 -6.30457 0.350657
thorax -1.12704 -3.12127 1.87326
lowerneck -9.16003 -7.23343 -4.82524
upperneck 17.5821 -9.7654 3.12755
head 7.29184 -4.75248 0.897463
rclavicle -1.00088e-013 1.19271e-015
rhumerus -44.0993 6.74563 -93.4808
rradius 70.4087
rwrist 4.84294
rhand -59.237 0.312238
rfingers 7.12502
rthumb -31.4252 -27.0073
lclavicle -1.00088e-013 1.19271e-015
lhumerus -7.62004 -9.71318 104.101
lradius 55.0286
lwrist 68.3644
lhand -13.5138 56.942
lfingers 7.12502
lthumb 12.5979 -633.458
rfemur -33.548 -1.05645 23.0645
rtibia 34.6456
rfoot -12.4165 -7.71234
rtoes -12.8961
lfemur -11.9204 2.07426 -20.8685
ltibia 23.5842
lfoot -23.0964 11.2581
ltoes -17.8447
989
root 7.50603 17.2732 -5.79225 12.7141 -9.81294 719.835
lowerback -0.30011 -4.53044 -3.00713
upperback -1.66051 -6.06243 0.254022
thorax -1.19946 -2.99568 1.96135
lowerneck -9.07021 -7.03757 -4.99266
upperneck 17.579 -9.50506 3.30508
head 7.28137 -4.62475 1.01016
rclavicle 3.49861e-014 2.14687e-014
rhumerus -43.3001 6.92215 -94.0866
rradius 67.2638
rwrist 5.51914
rhand -58.7009 4.89378
rfingers 7.12502
rthumb -30.9143 -22.524
lclavicle 3.49861e-014 2.14687e-014
lhumerus -5.53541 -6.99798 104.265
lradius 51.969
lwrist 66.3349
lhand -12.5754 56.6683
lfingers 7.12502
lthumb 13.5025 -633.789
rfemur -34.2252 -0.288378 22.9308
rtibia 35.4316
rfoot -13.0441 -6.59547
rtoes -11.0973
lfemur -12.3949 1.60689 -20.6328
ltibia 23.7927
lfoot -23.6289 11.3312
ltoes -17.4024
990
root 7.47664 17.2473 -5.9433 12.3692 -9.75896 719.944
lowerback 0.315971 -4.35609 -3.01275
upperback -1.63052 -5.85362 0.0153602
thorax -1.54883 -2.88627 1.77443
lowerneck -8.95783 -6.75258 -5.0177
upperneck 17.5114 -9.14848 3.50773
head 7.23446 -4.44079 1.11998
rclavicle 9.34288e-015 0
rhumerus -42.2469 6.37287 -94.1158
rradius 63.9924
rwrist 7.32392
rhand -57.6718 8.29624
rfingers 7.12502
rthumb -29.9327 -19.3032
lclavicle 9.34288e-015 0
lhumerus -3.61527 -4.14953 104.339
lradius 49.3006
lwrist 64.3093
lhand -12.6107 56.1909
lfingers 7.12502
lthumb 13.4684 -634.265
rfemur -34.8291 1.06686 22.3038
rtibia 36.6375
rfoot -13.8123 -5.22683
rtoes -7.13769
lfemur -13.0208 1.1078 -20.5466
ltibia 24.658
lfoot -24.2782 11.4157
ltoes -17.5881
991
root 7.4185 17.2163 -6.08366 12.0744 -9.71176 720.003
lowerback 0.756359 -4.2083 -3.19761
upperback -1.61644 -5.67802 -0.170379
thorax -1.79111 -2.79245 1.72195
lowerneck -8.97103 -6.40176 -4.79778
upperneck 17.6205 -8.67838 3.36777
head 7.23386 -4.21279 1.08546
rclavicle -3.89618e-014 -3.18055e-015
rhumerus -41.1686 5.39874 -93.802
rradius 60.687
rwrist 10.1265
rhand -57.214 8.23039
rfingers 7.12502
rthumb -29.4958 -19.447
lclavicle -3.89618e-014 -3.18055e-015
lhumerus -1.96434 -1.33262 104.243
lradius 47.1552
lwrist 62.2973
lhand -12.5677 55.7424
lfingers 7.12502
lthumb 13.5098 -634.716
rfemur -35.9372 2.55458 21.8013
rtibia 39.1669
rfoot -14.9346 -3.70826
rtoes -5.3818
lfemur -13.7165 0.928528 -20.2722
ltibia 25.7509
lfoot -24.915 11.4013
ltoes -18.2412
992
root 7.34008 17.1785 -6.20911 11.7508 -9.77391 720.114
lowerback 1.00828 -4.04292 -3.50782
upperback -1.57722 -5.47599 -0.37769
thorax -1.8942 -2.68638 1.69704
lowerneck -9.07739 -5.96057 -4.31849
upperneck 17.8259 -8.06767 2.92048
head 7.25259 -3.92502 0.919956
rclavicle 2.49475e-014 -2.06736e-014
rhumerus -40.1407 4.23303 -93.3528
rradius 57.6505
rwrist 12.0741
rhand -55.6858 11.9721
rfingers 7.12502
rthumb -28.0359 -15.9533
lclavicle 2.49475e-014 -2.06736e-014
lhumerus -0.590061 1.12269 103.858
lradius 45.5129
lwrist 60.5399
lhand -12.1717 55.3352
lfingers 7.12502
lthumb 13.8916 -635.149
rfemur -37.0186 3.91005 21.3663
rtibia 42.2753
rfoot -15.3259 -2.93866
rtoes -5.89403
lfemur -14.3352 0.811432 -20.0157
ltibia 26.8929
lfoot -25.2804 11.5526
ltoes -18.6641
993
root 7.2491 17.1423 -6.32595 11.368 -9.88766 720.349
lowerback 1.10853 -3.82192 -3.85041
upperback -1.4505 -5.19448 -0.693787
thorax -1.83456 -2.54515 1.56081
lowerneck -9.13848 -5.33692 -3.93429
upperneck 17.8787 -7.19183 2.50802
head 7.21569 -3.51468 0.808449
rclavicle -4.54223e-014 -2.22639e-014
rhumerus -39.1743 2.92548 -92.8898
rradius 54.8638
rwrist 14.1462
rhand -54.3516 15.2932
rfingers 7.12502
rthumb -26.7599 -12.8342
lclavicle -4.54223e-014 -2.22639e-014
lhumerus 0.623841 2.93631 103.145
lradius 44.2493
lwrist 59.1363
lhand -11.7083 55.093
lfingers 7.12502
lthumb 14.3381 -635.422
rfemur -38.0366 5.29688 20.8332
rtibia 45.8159
rfoot -15.319 -4.76577
rtoes -8.00258
lfemur -14.9507 0.570197 -19.8757
ltibia 28.135
lfoot -25.4587 11.8202
ltoes -19.2811
994
root 7.15908 17.1096 -6.44925 10.9703 -9.86197 720.658
lowerback 1.20809 -3.56627 -4.1193
upperback -1.22189 -4.86178 -1.01771
thorax -1.67912 -2.38289 1.37063
lowerneck -9.37332 -4.72238 -3.19411
upperneck 17.8671 -6.33922 1.8802
head 7.17727 -3.10823 0.562189
rclavicle 2.98177e-015 1.59028e-015
rhumerus -38.1445 1.63772 -92.2708
rradius 52.2915
rwrist 16.2689
rhand -53.1743 17.6458
rfingers 7.12502
rthumb -25.6327 -10.6488
lclavicle 2.98177e-015 1.59028e-015
lhumerus 1.87135 4.15817 102.334
lradius 43.1944
lwrist 57.835
lhand -11.3008 54.8855
lfingers 7.12502
lthumb 14.7307 -635.658
rfemur -38.9324 6.90686 19.8899
rtibia 50.1814
rfoot -16.0735 -6.28215
rtoes -3.52683
lfemur -15.7747 0.216146 -19.822
ltibia 29.7057
lfoot -25.6848 12.0389
ltoes -20.5677
995
root 7.07565 17.0778 -6.57405 10.781 -9.6184 720.777
lowerback 1.63167 -3.33793 -4.07007
upperback -1.31313 -4.58518 -1.1505
thorax -2.03987 -2.23787 1.23545
lowerneck -9.55706 -3.78362 -3.0046
upperneck 18.0126 -4.98273 1.38569
head 7.2019 -2.48611 0.493473
rclavicle -1.56046e-014 1.82882e-014
rhumerus -37.6441 0.601611 -91.2854
rradius 50.1581
rwrist 19.3654
rhand -53.8605 18.3469
rfingers 7.12502
rthumb -26.2898 -9.8515
lclavicle -1.56046e-014 1.82882e-014
lhumerus 2.57257 5.21006 101.537
lradius 42.4269
lwrist 56.5553
lhand -11.1822 54.402
lfingers 7.12502
lthumb 14.845 -636.15
rfemur -39.8949 8.26409 18.9935
rtibia 54.5893
rfoot -16.7428 -8.09628
rtoes 0.466225
lfemur -17.0087 -0.149347 -19.533
ltibia 31.5888
lfoot -25.9915 12.1735
ltoes -22.0979
996
root 6.9826 17.0512 -6.68071 10.7737 -9.19394 721.018
lowerback 1.65746 -3.18722 -4.01261
upperback -1.39054 -4.3914 -1.33933
thorax -2.16277 -2.14036 1.01082
lowerneck -9.73566 -2.57057 -2.33125
upperneck 18.0268 -3.27667 0.606108
head 7.17229 -1.69018 0.28546
rclavicle -9.14409e-014 -1.35174e-014
rhumerus -37.4207 0.0286618 -90.3268
rradius 48.4116
rwrist 22.0079
rhand -53.7338 19.9466
rfingers 7.12502
rthumb -26.1685 -8.26978
lclavicle -9.14409e-014 -1.35174e-014
lhumerus 3.021 5.88774 100.414
lradius 42.1075
lwrist 55.3636
lhand -11.0618 53.9685
lfingers 7.12502
lthumb 14.961 -636.592
rfemur -40.7558 9.44602 17.6981
rtibia 58.724
rfoot -16.5801 -9.53019
rtoes -0.491589
lfemur -18.3714 -0.474028 -19.3191
ltibia 33.4191
lfoot -26.415 12.0332
ltoes -23.3549
997
root 6.87705 17.0213 -6.76306 10.4977 -8.80946 721.261
lowerback 1.59202 -2.97535 -3.99953
upperback -1.24884 -4.10277 -1.50343
thorax -2.0059 -2.00225 0.819562
lowerneck -9.76592 -0.964678 -0.621569
upperneck 17.6368 -1.00526 -1.30888
head 6.99518 -0.651578 -0.409994
rclavicle 1.68967e-015 0
rhumerus -37.513 -0.0887789 -89.1784
rradius 47.6022
rwrist 25.0896
rhand -53.5952 19.6957
rfingers 7.12502
rthumb -26.0358 -8.54024
lclavicle 1.68967e-015 0
lhumerus 3.4301 6.36244 99.2417
lradius 42.0965
lwrist 54.1246
lhand -10.6255 53.7583
lfingers 7.12502
lthumb 15.3812 -636.834
rfemur -40.9302 10.5795 16.3725
rtibia 62.3583
rfoot -15.8343 -10.6806
rtoes 0.19827
lfemur -19.003 0.420392 -18.9951
ltibia 34.5863
lfoot -26.9149 10.9315
ltoes -24.2083
998
root 6.76474 16.9967 -6.83659 10.2389 -8.337 721.842
lowerback 1.50743 -2.75214 -4.38591
upperback -1.13274 -3.80698 -1.62225
thorax -1.83503 -1.85447 0.895824
lowerneck -9.59288 1.16398 1.27944
upperneck 16.9883 2.04683 -3.884
head 6.81408 0.725351 -1.28558
rclavicle -8.14023e-014 -4.77083e-015
rhumerus -38.0317 0.257745 -87.758
rradius 47.4679
rwrist 27.4273
rhand -53.9974 21.9637
rfingers 7.12502
rthumb -26.4208 -6.21503
lclavicle -8.14023e-014 -4.77083e-015
lhumerus 3.71013 6.83977 98.2191
lradius 42.2557
lwrist 53.081
lhand -10.0236 53.3494
lfingers 7.12502
lthumb 15.9609 -637.288
rfemur -40.9169 11.6781 14.2798
rtibia 65.5806
rfoot -15.0118 -10.6527
rtoes 9.8097
lfemur -19.2149 0.672645 -19.14
ltibia 34.8698
lfoot -26.9543 10.4957
ltoes -25.4937
999
root 6.64834 16.9759 -6.90926 10.3514 -7.4005 722.599
lowerback 1.21215 -2.62416 -4.7822
upperback -1.14787 -3.62904 -1.74077
thorax -1.6772 -1.76436 0.974679
lowerneck -8.86522 3.47398 3.58497
upperneck 15.962 5.33367 -6.90491
head 6.59546 2.22941 -2.35537
rclavicle -4.07509e-014 1.03368e-014
rhumerus -38.9214 0.626953 -86.1988
rradius 47.907
rwrist 29.8338
rhand -54.8739 23.147
rfingers 7.12502
rthumb -27.2595 -4.90297
lclavicle -4.07509e-014 1.03368e-014
lhumerus 3.75088 7.20196 97.243
lradius 42.6224
lwrist 52.344
lhand -9.41109 52.6661
lfingers 7.12502
lthumb 16.5507 -638.02
rfemur -41.0031 11.9927 11.9639
rtibia 68.3619
rfoot -13.6828 -10.7728
rtoes 14.6673
lfemur -19.7617 0.228377 -19.465
ltibia 34.8252
lfoot -26.5361 10.3894
ltoes -27.9634
